<?xml version="1.0" encoding="utf-8"?>
<!-- Generator: Adobe Illustrator 22.1.0, SVG Export Plug-In . SVG Version: 6.00 Build 0)  -->
<svg version="1.1" id="Layer_1" xmlns="http://www.w3.org/2000/svg" xmlns:xlink="http://www.w3.org/1999/xlink" x="0px" y="0px"
	 viewBox="0 0 210 180" style="enable-background:new 0 0 210 180;" xml:space="preserve">
<style type="text/css">
	.st0{fill:none;stroke:#D2D6E3;stroke-width:10;stroke-miterlimit:10;}
	.st1{fill:none;stroke:#D2D6E3;stroke-width:10;stroke-linejoin:round;stroke-miterlimit:10;}
</style>
<line class="st0" x1="58.1" y1="144.2" x2="11.1" y2="117.1"/>
<line class="st0" x1="58.1" y1="90" x2="11.1" y2="117.1"/>
<line class="st0" x1="58.1" y1="90" x2="11.1" y2="62.8"/>
<path class="st0" d="M58.1,90"/>
<line class="st0" x1="58.1" y1="35.7" x2="11.1" y2="62.8"/>
<line class="st0" x1="58.1" y1="90" x2="58.1" y2="35.7"/>
<line class="st0" x1="105.1" y1="62.9" x2="58.1" y2="90"/>
<line class="st0" x1="105.1" y1="117.1" x2="105.1" y2="62.9"/>
<line class="st0" x1="151.9" y1="144.2" x2="198.9" y2="117.1"/>
<line class="st0" x1="151.9" y1="90" x2="198.9" y2="117.1"/>
<line class="st0" x1="151.9" y1="90" x2="198.9" y2="62.9"/>
<line class="st0" x1="151.9" y1="35.7" x2="198.9" y2="62.9"/>
<line class="st0" x1="151.9" y1="90" x2="151.9" y2="35.7"/>
<line class="st0" x1="105.1" y1="62.9" x2="151.9" y2="90"/>
<polyline class="st1" points="11.1,62.9 11.1,8.6 58.1,35.7 105.1,62.9 151.9,35.7 198.9,8.6 198.9,62.9 198.9,117.1 198.9,171.4 
	151.9,144.2 151.9,90 105.1,117.1 58.1,90 58.1,144.2 11.1,171.4 11.1,117.1 11.1,62.8 "/>
</svg>
