<?xml version="1.0" encoding="utf-8"?>
<!-- Generator: Adobe Illustrator 22.1.0, SVG Export Plug-In . SVG Version: 6.00 Build 0)  -->
<svg version="1.1" id="Layer_2" xmlns="http://www.w3.org/2000/svg" xmlns:xlink="http://www.w3.org/1999/xlink" x="0px" y="0px"
	 viewBox="0 0 947.8 947.8" style="enable-background:new 0 0 947.8 947.8;" xml:space="preserve">
<style type="text/css">
	.st0{fill:none;stroke:#FFFFFF;stroke-width:28;stroke-miterlimit:10;}
	.st1{fill:#FFFFFF;stroke:#FFFFFF;stroke-width:28;stroke-miterlimit:10;}
</style>
<g>
	<circle class="st0" cx="473.9" cy="422.4" r="280.5"/>
	<path class="st0" d="M20.1,549c18.4-8.6,42.4-25,69.8-31.4c40.1-9.5,89.5-15.1,115.5-13.7"/>
	<path class="st0" d="M677.9,615c12.7,6,27.1,14.6,43.5,30.9c32.2,32,42.4,69.2,45.8,86.1c-0.3,30.6,0.3,65.5,0,96.1"/>
	<path class="st0" d="M651.4,350.9"/>
	<path class="st1" d="M424.6,484.9L424.6,484.9c-12.5,0-22.8-10.3-22.8-22.8v-68.4c0-12.5,10.3-22.8,22.8-22.8h0
		c12.5,0,22.8,10.3,22.8,22.8v68.4C447.4,474.7,437.2,484.9,424.6,484.9z"/>
	<path class="st1" d="M584.6,484.9L584.6,484.9c-12.5,0-22.8-10.3-22.8-22.8v-68.4c0-12.5,10.3-22.8,22.8-22.8h0
		c12.5,0,22.8,10.3,22.8,22.8v68.4C607.4,474.7,597.2,484.9,584.6,484.9z"/>
</g>
<circle class="st0" cx="473.9" cy="473.9" r="459.9"/>
</svg>
